<?xml version="1.0" encoding="iso-8859-1"?><!DOCTYPE svg PUBLIC "-//W3C//DTD SVG 1.1//EN" "http://www.w3.org/Graphics/SVG/1.1/DTD/svg11.dtd"><svg viewBox="0 0 800 800" xmlns="http://www.w3.org/2000/svg" xmlns:xlink="http://www.w3.org/1999/xlink"><style>:root>svg{display:none}:root>svg:target{display:block}</style><svg fill="#fff" viewBox="0 0 330 330" xml:space="preserve" id="icons--arrow-right" xmlns="http://www.w3.org/2000/svg"><path d="M15 180h263.787l-49.394 49.394c-5.858 5.857-5.858 15.355 0 21.213C232.322 253.535 236.161 255 240 255s7.678-1.465 10.606-4.394l75-75c5.858-5.857 5.858-15.355 0-21.213l-75-75c-5.857-5.857-15.355-5.857-21.213 0-5.858 5.857-5.858 15.355 0 21.213L278.787 150H15c-8.284 0-15 6.716-15 15s6.716 15 15 15z"/></svg><svg fill="green" viewBox="0 0 120.64 122.88" style="enable-background:new 0 0 120.64 122.88" xml:space="preserve" id="icons--double-arrow-right" xmlns="http://www.w3.org/2000/svg"><path d="M54.03 108.91a8.288 8.288 0 0 0-2.28 5.85c.03 2.11.84 4.2 2.44 5.79l.12.12c1.58 1.5 3.6 2.23 5.61 2.2 2.01-.03 4.01-.82 5.55-2.37 17.66-17.66 35.13-35.61 52.68-53.4.07-.05.13-.1.19-.16a8.335 8.335 0 0 0 2.28-5.87 8.323 8.323 0 0 0-2.45-5.8l-.27-.26C100.43 37.47 82.98 19.87 65.46 2.36A7.956 7.956 0 0 0 59.92 0c-2.01-.03-4.03.7-5.61 2.21l-.15.15a8.318 8.318 0 0 0-2.41 5.76c-.03 2.1.73 4.22 2.28 5.85l47.22 47.27-47.22 47.67zm-51.77-2A8.265 8.265 0 0 0 0 112.74c.03 2.11.84 4.2 2.44 5.79l.12.12c1.57 1.5 3.6 2.23 5.61 2.21 2.01-.03 4.02-.82 5.55-2.37C31.01 101.2 48.87 84.2 66.39 67.12c.07-.05.14-.11.21-.17a8.335 8.335 0 0 0 2.28-5.87 8.323 8.323 0 0 0-2.45-5.8C48.94 38.33 31.36 21.44 13.83 4.51l-.12-.13a7.945 7.945 0 0 0-5.54-2.35c-2.01-.03-4.03.7-5.61 2.2l-.15.15A8.336 8.336 0 0 0 0 10.14c-.03 2.1.73 4.22 2.28 5.85l47.18 45.24-47.2 45.68z"/></svg><svg fill="green" viewBox="0 0 48.625 48.625" xml:space="preserve" id="icons--earth" xmlns="http://www.w3.org/2000/svg"><path d="m35.432 10.815.047.361-.541.112-.072.769h.648l.862-.083.445-.529-.473-.184-.259-.298-.389-.63-.186-.891-.731.149-.205.314v.354l.352.241z"/><path d="m34.809 11.111.039-.482-.429-.185-.6.139-.445.714v.463h.519zM22.459 13.158l-.132.34h-.639v.33h.152l.022.162.392-.033.245-.152.064-.307.317-.027.125-.258-.291-.06-.255.005zM20.812 13.757l-.025.323.463-.039.048-.324-.278-.219z"/><path d="M48.619 24.061a24.552 24.552 0 0 0-.11-2.112 24.165 24.165 0 0 0-1.609-6.62c-.062-.155-.119-.312-.185-.465a24.341 24.341 0 0 0-4.939-7.441 24.19 24.19 0 0 0-1.11-1.086A24.22 24.22 0 0 0 24.312 0c-6.345 0-12.126 2.445-16.46 6.44a24.6 24.6 0 0 0-2.78 3.035A24.18 24.18 0 0 0 0 24.312c0 13.407 10.907 24.313 24.313 24.313 9.43 0 17.617-5.4 21.647-13.268a24.081 24.081 0 0 0 2.285-6.795c.245-1.381.379-2.801.379-4.25.001-.084-.004-.167-.005-.251zm-4.576-9.717.141-.158c.185.359.358.724.523 1.094l-.23-.009-.434.06v-.987zm-3.513-4.242.004-1.086c.382.405.75.822 1.102 1.254l-.438.652-1.531-.014-.096-.319.959-.487zM11.202 7.403v-.041h.487l.042-.167h.797v.348l-.229.306h-1.098l.001-.446zm.778 1.085s.487-.083.529-.083 0 .486 0 .486l-1.098.069-.209-.25.778-.222zm33.612 9.651h-1.779l-1.084-.807-1.141.111v.696h-.361l-.39-.278-1.976-.501v-1.28l-2.504.195-.776.417h-.994l-.487-.049-1.207.67v1.261l-2.467 1.78.205.76h.5l-.131.724-.352.129-.019 1.892 2.132 2.428h.928l.056-.148h1.668l.481-.445h.946l.519.52 1.41.146-.187 1.875 1.565 2.763-.824 1.575.056.742.649.647v1.784l.852 1.146v1.482h.736c-4.096 5.029-10.33 8.25-17.305 8.25C12.009 46.625 2 36.615 2 24.312c0-3.097.636-6.049 1.781-8.732v-.696l.798-.969c.277-.523.574-1.033.891-1.53l.036.405-.926 1.125a22.14 22.14 0 0 0-.798 1.665v1.27l.927.446v1.765l.889 1.517.723.111.093-.52-.853-1.316-.167-1.279h.5l.211 1.316 1.233 1.799-.318.581.784 1.199 1.947.482v-.315l.779.111-.074.556.612.112.945.258 1.335 1.521 1.705.129.167 1.391-1.167.816-.055 1.242-.167.76 1.688 2.113.129.724s.612.166.687.166c.074 0 1.372.983 1.372.983v3.819l.463.13-.315 1.762.779 1.039-.144 1.746 1.029 1.809 1.321 1.154 1.328.024.13-.427-.976-.822.056-.408.175-.5.037-.51-.66-.02-.333-.418.548-.527.074-.398-.612-.175.036-.37.872-.132 1.326-.637.445-.816 1.391-1.78-.316-1.392.427-.741 1.279.039.861-.682.278-2.686.955-1.213.167-.779-.871-.279-.575-.943-1.965-.02-1.558-.594-.074-1.111-.52-.909-1.409-.021-.814-1.278-.723-.353-.037.39-1.316.078-.482-.671-1.373-.279-1.131 1.307-1.78-.302-.129-2.006-1.299-.222.521-.984-.149-.565-1.707 1.141-1.074-.131-.383-.839.234-.865.592-1.091 1.363-.69 2.632-.001-.007.803.946.44-.075-1.372.682-.686 1.376-.904.094-.636 1.372-1.428 1.459-.808-.129-.106.988-.93.362.096.166.208.375-.416.092-.041-.411-.058-.417-.139v-.4l.221-.181h.487l.223.098.193.39.236-.036v-.034l.068.023.684-.105.097-.334.39.098v.362l-.362.249h.001l.053.397 1.239.382.003.015.285-.024.019-.537-.982-.447-.056-.258.815-.278.036-.78-.852-.519-.056-1.315-1.168.574h-.426l.112-1.001-1.59-.375-.658.497v1.516l-1.183.375-.474.988-.514.083v-1.264l-1.112-.154-.556-.362-.224-.819 1.989-1.164.973-.296.098.654.542-.028.042-.329.567-.081.01-.115-.244-.101-.056-.348.697-.059.421-.438.023-.032.005.002.128-.132 1.465-.185.648.55-1.699.905 2.162.51.28-.723h.945l.334-.63-.668-.167v-.797l-2.095-.928-1.446.167-.816.427.056 1.038-.853-.13-.131-.574.817-.742-1.483-.074-.426.129-.185.5.556.094-.111.556-.945.056-.148.37-1.371.038s-.038-.778-.093-.778l1.075-.019.817-.798-.446-.223-.593.576-.984-.056-.593-.816h-1.261l-1.316.983h1.206l.11.353-.313.291 1.335.037.204.482-1.503-.056-.073-.371-.945-.204-.501-.278-1.125.009A22.188 22.188 0 0 1 24.312 2c5.642 0 10.797 2.109 14.73 5.574l-.265.474-1.029.403-.434.471.1.549.531.074.32.8.916-.369.151 1.07h-.276l-.752-.111-.834.14-.807 1.14-1.154.181-.167.988.487.115-.141.635-1.146-.23-1.051.23-.223.585.182 1.228.617.289 1.035-.006.699-.063.213-.556 1.092-1.419.719.147.708-.64.132.5 1.742 1.175-.213.286-.785-.042.302.428.483.106.566-.236-.012-.682.251-.126-.202-.214-1.162-.648-.306-.861h.966l.309.306.832.717.035.867.862.918.321-1.258.597-.326.112 1.029.583.64 1.163-.02c.225.579.427 1.168.604 1.769l-.121.112zm-32.331-7.093.584-.278.528.126-.182.709-.57.181-.36-.738zm3.099 1.669v.459h-1.334l-.5-.139.125-.32.641-.265h.876v.265h.192zm.614.64v.445l-.334.215-.416.077v-.737h.75zm-.376-.181v-.529l.459.418-.459.111zm.209 1.07v.433l-.319.32h-.709l.111-.486.335-.029.069-.167.513-.071zm-1.766-.889h.737l-.945 1.321-.39-.209.084-.556.514-.556zm3.018.737v.432h-.709l-.194-.28v-.402h.056l.847.25zm-.655-.594.202-.212.341.212-.273.225-.27-.225zm28.55 5.767.07-.082c.029.126.06.252.088.38l-.158-.298z"/><path d="M3.782 14.884v.696c.243-.568.511-1.122.798-1.665l-.798.969z"/></svg><svg viewBox="0 0 24 24" fill="#fff" id="icons--facebook" xmlns="http://www.w3.org/2000/svg"><path fill-rule="evenodd" clip-rule="evenodd" d="M20 1a3 3 0 0 1 3 3v16a3 3 0 0 1-3 3H4a3 3 0 0 1-3-3V4a3 3 0 0 1 3-3h16Zm0 2a1 1 0 0 1 1 1v16a1 1 0 0 1-1 1h-5v-7h2.076a1 1 0 0 0 .949-.684l.443-1.329a.75.75 0 0 0-.712-.987H15V9c0-.5.5-1 1-1h2a1 1 0 0 0 1-1v-.686a.71.71 0 0 0-.519-.695C17.171 5.273 16 5.273 16 5.273c-2.5 0-4 1.727-4 3.227V11h-2a1 1 0 0 0-1 1v1a1 1 0 0 0 1 1h2v7H4a1 1 0 0 1-1-1V4a1 1 0 0 1 1-1h16Z"/></svg><svg viewBox="0 0 24 24" fill="none" id="icons--instagram" xmlns="http://www.w3.org/2000/svg"><path fill-rule="evenodd" clip-rule="evenodd" d="M12 18a6 6 0 1 0 0-12 6 6 0 0 0 0 12Zm0-2a4 4 0 1 0 0-8 4 4 0 0 0 0 8Z" fill="#fff"/><path d="M18 5a1 1 0 1 0 0 2 1 1 0 0 0 0-2Z" fill="#fff"/><path fill-rule="evenodd" clip-rule="evenodd" d="M1.654 4.276C1 5.56 1 7.24 1 10.6v2.8c0 3.36 0 5.04.654 6.324a6 6 0 0 0 2.622 2.622C5.56 23 7.24 23 10.6 23h2.8c3.36 0 5.04 0 6.324-.654a6 6 0 0 0 2.622-2.622C23 18.44 23 16.76 23 13.4v-2.8c0-3.36 0-5.04-.654-6.324a6 6 0 0 0-2.622-2.622C18.44 1 16.76 1 13.4 1h-2.8c-3.36 0-5.04 0-6.324.654a6 6 0 0 0-2.622 2.622ZM13.4 3h-2.8c-1.713 0-2.878.002-3.778.075-.877.072-1.325.202-1.638.361a4 4 0 0 0-1.748 1.748c-.16.313-.29.761-.36 1.638C3.001 7.722 3 8.887 3 10.6v2.8c0 1.713.002 2.878.075 3.778.072.877.202 1.325.361 1.638a4 4 0 0 0 1.748 1.748c.313.16.761.29 1.638.36.9.074 2.065.076 3.778.076h2.8c1.713 0 2.878-.002 3.778-.075.877-.072 1.325-.202 1.638-.361a4 4 0 0 0 1.748-1.748c.16-.313.29-.761.36-1.638.074-.9.076-2.065.076-3.778v-2.8c0-1.713-.002-2.878-.075-3.778-.072-.877-.202-1.325-.361-1.638a4 4 0 0 0-1.748-1.748c-.313-.16-.761-.29-1.638-.36C16.278 3.001 15.113 3 13.4 3Z" fill="#fff"/></svg><svg viewBox="0 0 72 72" id="icons--play-icon" xmlns="http://www.w3.org/2000/svg"><path fill="#fff" stroke="#fff" stroke-linejoin="round" stroke-miterlimit="10" stroke-width="2" d="M19.582 55.606c.484.178 1.03.297 1.575.297.849 0 1.697-.297 2.425-.772l30-15.98.303-.296c.788-.772 1.212-1.723 1.212-2.792 0-1.07-.425-2.08-1.212-2.792l-.303-.297-30-16.098c-1.091-.832-2.667-1.01-4-.475-1.516.594-2.485 2.079-2.485 3.683v31.84c0 1.603.97 3.088 2.485 3.682z"/></svg><svg viewBox="0 0 24 24" fill="none" id="icons--twitter" xmlns="http://www.w3.org/2000/svg"><path fill-rule="evenodd" clip-rule="evenodd" d="M19.783 3.918c.348-.082.591-.164.79-.249.28-.12.51-.263.876-.504A1 1 0 0 1 23 4c0 1.08-.135 1.967-.447 2.746a5.47 5.47 0 0 1-1.071 1.674c-.187 3.363-1.16 6.004-2.648 8.005-1.543 2.074-3.595 3.402-5.759 4.146-2.157.741-4.436.907-6.478.656-2.029-.25-3.904-.921-5.211-1.938a1 1 0 0 1 .755-1.78c1.286.185 2.524-.108 3.542-.526-.2-.109-.39-.227-.565-.348-.927-.643-1.676-1.514-2.012-2.188A1 1 0 0 1 3.4 13.2C2.047 12.081 1.5 10.536 1.5 9.5a1 1 0 0 1 .723-.96 7.357 7.357 0 0 1-.24-.887c-.266-1.287-.242-2.74.047-3.895A1 1 0 0 1 3.866 3.5c1.078 1.868 3.065 3.01 4.915 3.686.87.318 1.675.52 2.279.645.13-1.22.47-2.227.994-3.027a4.586 4.586 0 0 1 2.686-1.957c1.783-.48 3.76.067 5.043 1.071Zm-9.035 5.89a18.334 18.334 0 0 1-2.654-.744c-1.357-.496-2.933-1.27-4.253-2.468.023.22.057.439.1.652.222 1.071.633 1.671 1.006 1.857a1 1 0 0 1 .49 1.242c-.239.648-.869.7-1.441.558.46.69 1.288 1.378 2.668 1.609a1 1 0 0 1 .032 1.966l-.87.175c.133.115.277.229.43.335.698.483 1.397.69 2.001.54a1 1 0 0 1 .883 1.738c-.644.536-1.396.966-2.15 1.323-.353.168-.749.333-1.178.479.33.07.674.128 1.029.172 1.77.217 3.741.07 5.584-.563 1.836-.631 3.534-1.74 4.804-3.448 1.268-1.705 2.153-4.064 2.272-7.268a1 1 0 0 1 .292-.67c.45-.45.821-.965 1.004-1.579-.32.1-.68.186-1.11.268a1 1 0 0 1-.894-.275c-.765-.764-2.277-1.267-3.533-.929A2.587 2.587 0 0 0 13.727 5.9C13.315 6.53 13 7.51 13 9a1 1 0 0 1-.33.743c-.498.45-1.336.184-1.922.066Z" fill="#fff"/></svg><svg viewBox="0 0 48 48" id="icons--vk" xmlns="http://www.w3.org/2000/svg"><path d="M27.55 35.19v-6.64c4.46.68 5.87 4.19 8.71 6.64h7.24a29.36 29.36 0 0 0-7.9-10.47c2.6-3.58 5.36-6.95 6.71-12.06h-6.58c-2.58 3.91-3.94 8.49-8.18 11.51V12.66H18l2.28 2.82v10.05c-3.7-.43-6.2-7.2-8.91-12.87H4.5c2.5 7.66 7.76 24.47 23.05 22.53Z" style="fill:none;stroke:#fff;stroke-linecap:round;stroke-linejoin:round"/></svg><svg viewBox="0 0 48 48" id="icons--youtube" xmlns="http://www.w3.org/2000/svg"><defs><style>.ia{fill:none;stroke:#fff;stroke-linecap:round;stroke-linejoin:round}</style></defs><path class="ia" d="M43.112 14.394a5.006 5.006 0 0 0-3.533-3.533c-2.314-.894-24.732-1.332-31.236.025A5.006 5.006 0 0 0 4.81 14.42c-1.045 4.583-1.124 14.491.026 19.177a5.006 5.006 0 0 0 3.533 3.533c4.583 1.055 26.371 1.203 31.236 0a5.006 5.006 0 0 0 3.533-3.533c1.114-4.993 1.193-14.287-.026-19.203Z"/><path class="ia" d="M30.567 23.995 20.12 18.004v11.982Z"/></svg><svg data-name="Layer 1" viewBox="0 0 122.88 121.52" id="recycling--recycling-icon" xmlns="http://www.w3.org/2000/svg"><path d="M50.43.09 77.25 0c4.85 0 8.15.86 11.33 5l7.57 13.52 7.68-4.74L90.6 36.93l-26.74-.1L72 32.09 58.26 8.77A25.12 25.12 0 0 0 54.12 3 22.45 22.45 0 0 0 50.43.09Zm6.47 112.17H31.17c-5.69-.88-9.34-4-10.43-8.26-.93-3.71 0-5.42 1.6-8.61 1.93-3.81 4.2-7.49 6.38-11.2l28.49.1-.31 27.92Zm-41-10L2.43 79.06C0 74.87-.91 71.57 1.12 66.72L9.05 53.4l-7.94-4.27L27.73 49 41 72.24l-8.19-4.71-13.29 23.59a24.94 24.94 0 0 0-3 6.49 22.15 22.15 0 0 0-.64 4.63Zm92.91-60.6 12.91 22.25c2.1 5.35 1.28 10.09-1.92 13.14-2.74 2.67-4.69 2.73-8.26 2.93-4.26.23-8.58.1-12.89.07L84.49 55.33l24.34-13.69Zm11.81 40.5-13.33 23.27c-2.41 4.21-4.82 6.64-10 7.3l-15.5-.21.27 9-13.4-23L82.11 75.4v9.45l27.08-.27a25 25 0 0 0 7.1-.68 22.2 22.2 0 0 0 4.33-1.76ZM21.26 30.57l12.82-22.3c3.6-4.5 8.1-6.11 12.36-4.91 3.68 1.05 4.71 2.7 6.67 5.69 2.33 3.57 4.38 7.38 6.51 11.13L45.28 44.8l-24-14.23Z" style="fill:#018100;fill-rule:evenodd"/></svg></svg>